HIERARCHY
ROOT Hips
{
	OFFSET 0.000000 0.000000 0.000000
	CHANNELS 6 Xposition Yposition Zposition Xrotation Yrotation Zrotation
	JOINT LeftUpLeg_virtual
	{
		OFFSET 0.000000 0.000000 0.000000
		CHANNELS 3 Xrotation Yrotation Zrotation
		JOINT LeftUpLeg
		{
			OFFSET 11.394100 -6.187798 -0.413800
			CHANNELS 3 Xrotation Yrotation Zrotation
			JOINT LeftLeg
			{
				OFFSET 0.430247 -32.302673 3.732800
				CHANNELS 3 Xrotation Yrotation Zrotation
				JOINT LeftFoot
				{
					OFFSET -0.430247 -48.264931 -6.423300
					CHANNELS 3 Xrotation Yrotation Zrotation
					JOINT LeftToeBase
					{
						OFFSET 4.230900 -16.068199 23.438400
						CHANNELS 3 Xrotation Yrotation Zrotation
						JOINT LeftToe_End
						{
							OFFSET 4.510700 0.695400 19.974600
							CHANNELS 3 Xrotation Yrotation Zrotation
							End Site
							{
								OFFSET 0 0 0
							}
						}
					}
				}
			}
		}
	}
	JOINT RightUpLeg_virtual
	{
		OFFSET 0.000000 0.000000 0.000000
		CHANNELS 3 Xrotation Yrotation Zrotation
		JOINT RightUpLeg
		{
			OFFSET -11.333700 -6.187798 -0.413800
			CHANNELS 3 Xrotation Yrotation Zrotation
			JOINT RightLeg
			{
				OFFSET -0.430392 -32.302628 3.733000
				CHANNELS 3 Xrotation Yrotation Zrotation
				JOINT RightFoot
				{
					OFFSET 0.430392 -48.264973 -6.423500
					CHANNELS 3 Xrotation Yrotation Zrotation
					JOINT RightToeBase
					{
						OFFSET -4.230900 -16.068199 23.438400
						CHANNELS 3 Xrotation Yrotation Zrotation
						JOINT RightToe_End
						{
							OFFSET -4.510700 0.695400 19.974600
							CHANNELS 3 Xrotation Yrotation Zrotation
							End Site
							{
								OFFSET 0 0 0
							}
						}
					}
				}
			}
		}
	}
	JOINT Spine_virtual
	{
		OFFSET 0.000000 0.000000 0.000000
		CHANNELS 3 Xrotation Yrotation Zrotation
		JOINT Spine
		{
			OFFSET -0.002400 12.777504 0.315300
			CHANNELS 3 Xrotation Yrotation Zrotation
			JOINT Spine1
			{
				OFFSET -0.002067 5.816869 0.032633
				CHANNELS 3 Xrotation Yrotation Zrotation
				JOINT Spine1_split
				{
					OFFSET -0.002067 5.816869 0.032633
					CHANNELS 3 Xrotation Yrotation Zrotation
					JOINT Spine2
					{
						OFFSET -0.002067 5.816869 0.032633
						CHANNELS 3 Xrotation Yrotation Zrotation
						JOINT Neck_virtual
						{
							OFFSET 0.000000 0.000000 0.000000
							CHANNELS 3 Xrotation Yrotation Zrotation
							JOINT Neck
							{
								OFFSET -0.003700 21.199493 -0.826900
								CHANNELS 3 Xrotation Yrotation Zrotation
								JOINT Head
								{
									OFFSET 0.000000 20.442200 4.834800
									CHANNELS 3 Xrotation Yrotation Zrotation
									JOINT HeadTop_End
									{
										OFFSET 0.000000 34.668396 4.968400
										CHANNELS 3 Xrotation Yrotation Zrotation
										End Site
										{
											OFFSET 0 0 0
										}
									}
								}
							}
						}
						JOINT LeftShoulder_virtual
						{
							OFFSET 0.000000 0.000000 0.000000
							CHANNELS 3 Xrotation Yrotation Zrotation
							JOINT LeftShoulder
							{
								OFFSET 3.288150 8.794197 -1.372250
								CHANNELS 3 Xrotation Yrotation Zrotation
								JOINT LeftShoulder_split
								{
									OFFSET 3.288150 8.794197 -1.372250
									CHANNELS 3 Xrotation Yrotation Zrotation
									JOINT LeftArm
									{
										OFFSET 11.953299 -2.279007 -0.146200
										CHANNELS 3 Xrotation Yrotation Zrotation
										JOINT LeftForeArm
										{
											OFFSET 18.448900 0.000000 0.000000
											CHANNELS 3 Xrotation Yrotation Zrotation
											JOINT LeftHand
											{
												OFFSET 29.527798 0.000000 0.000000
												CHANNELS 3 Xrotation Yrotation Zrotation
												End Site
												{
													OFFSET 0 0 0
												}
											}
										}
									}
								}
							}
						}
						JOINT RightShoulder_virtual
						{
							OFFSET 0.000000 0.000000 0.000000
							CHANNELS 3 Xrotation Yrotation Zrotation
							JOINT RightShoulder
							{
								OFFSET -3.249400 8.794197 -1.372250
								CHANNELS 3 Xrotation Yrotation Zrotation
								JOINT RightShoulder_split
								{
									OFFSET -3.249400 8.794197 -1.372250
									CHANNELS 3 Xrotation Yrotation Zrotation
									JOINT RightArm
									{
										OFFSET -11.953299 -2.279007 -0.146200
										CHANNELS 3 Xrotation Yrotation Zrotation
										JOINT RightForeArm
										{
											OFFSET -18.448900 0.000000 0.000000
											CHANNELS 3 Xrotation Yrotation Zrotation
											JOINT RightHand
											{
												OFFSET -29.527802 0.000000 0.000000
												CHANNELS 3 Xrotation Yrotation Zrotation
												End Site
												{
													OFFSET 0 0 0
												}
											}
										}
									}
								}
							}
						}
					}
				}
			}
		}
	}
}
MOTION
Frames: 8
Frame Time: 0.03333333
-4.408285 99.918465 -3.823933 0.000000 0.000000 0.000000 -9.550157 -2.663190 8.262128 0.497049 13.334751 -4.288785 7.938933 4.181244 1.358269 1.839923 -2.672123 -1.174358 -3.451431 0.249215 -1.742672 0.000000 0.000000 0.000000 -9.549239 -2.689938 8.172898 -12.333343 -5.540602 -21.287430 32.709076 4.169272 0.907761 -9.331352 -14.101407 4.651408 -6.123594 0.446843 -1.299319 0.000000 0.000000 0.000000 -9.426094 -6.028985 7.566854 2.810841 -1.540448 -5.582449 4.249000 2.115773 -3.147382 2.138524 -1.564610 1.792283 0.000000 0.000000 0.000000 3.636325 1.758076 -3.257870 0.173652 -3.470266 -6.281287 -1.111246 -11.279315 5.406680 0.000000 0.000000 0.000000 4.520359 1.184456 -3.473777 3.437239 -7.996946 -19.111477 -6.556138 4.893499 -5.736549 18.342896 2.129551 -46.774464 1.084337 -46.870903 -5.548500 0.000000 0.000000 0.000000 2.709457 1.906371 -2.024952 6.330920 5.989771 6.177377 -2.966714 4.235846 0.335754 1.282457 -9.302250 68.159393 18.087956 30.390899 0.860586 0.000000 0.000000 0.000000 
-4.696335 100.370178 -2.974068 0.000000 0.000000 0.000000 -9.456137 -2.131338 8.110306 0.429562 11.934362 -3.955843 8.555731 4.176613 1.515440 2.518461 -2.182097 -1.009534 -4.641985 0.219076 -1.473156 0.000000 0.000000 0.000000 -9.623411 -2.042884 8.060308 -11.465117 -6.275533 -21.130396 31.677823 3.946038 0.699483 -9.005704 -13.395020 6.110063 -7.934070 0.453349 -1.384377 0.000000 0.000000 0.000000 -9.650503 -5.270438 7.070377 2.777851 -1.475833 -5.649674 5.202567 2.157891 -2.871674 2.191627 -0.720120 1.874519 0.000000 0.000000 0.000000 4.348762 1.876280 -3.064122 -0.935654 -3.436783 -5.651172 -2.727065 -9.819816 5.003854 0.000000 0.000000 0.000000 5.406686 1.245491 -3.202045 3.504147 -9.220842 -17.426217 -4.247436 1.858470 -3.627465 19.413822 -0.729671 -47.820320 1.291850 -47.615936 -5.210820 0.000000 0.000000 0.000000 3.414128 2.007635 -1.884135 5.908417 6.374958 6.347498 -2.889778 5.362534 0.240646 2.254340 -7.032832 67.233712 18.615839 33.703251 -0.085866 0.000000 0.000000 0.000000 
-5.040243 101.135551 -2.432316 0.000000 0.000000 0.000000 -9.637841 -1.495356 7.712518 0.179476 10.648331 -3.639503 9.491384 3.961422 1.547648 2.996082 -1.214821 -0.422880 -6.152268 0.224711 -1.001751 0.000000 0.000000 0.000000 -9.586118 -1.332514 7.693514 -10.340040 -7.048136 -20.741693 29.498771 3.309509 0.393015 -8.083189 -12.369531 7.139224 -7.948787 0.473634 -1.410832 0.000000 0.000000 0.000000 -9.859331 -4.386363 6.287110 3.020526 -1.108916 -5.537367 6.716356 2.200745 -2.404654 1.770566 0.151381 1.605379 0.000000 0.000000 0.000000 5.957193 2.062181 -2.703372 -3.633519 -3.028371 -5.670344 -5.053332 -8.174064 4.137493 0.000000 0.000000 0.000000 6.977331 1.533437 -2.732804 3.536750 -11.435475 -14.569442 -2.099458 -0.092563 -2.275375 24.207790 -6.578075 -45.241920 -2.023159 -53.079688 -6.083815 0.000000 0.000000 0.000000 5.018857 2.156923 -1.635428 5.453649 6.809891 6.229858 -2.640310 5.998420 0.167243 4.184261 -1.663571 64.922253 20.232856 36.838762 -3.118410 0.000000 0.000000 0.000000 
-5.315002 101.926735 -2.139660 0.000000 0.000000 0.000000 -9.975579 -0.980937 7.105930 -0.219214 9.875721 -3.469015 10.524994 3.634605 1.406441 3.200635 0.172515 0.429216 -7.078129 0.285182 -0.746770 0.000000 0.000000 0.000000 -9.344505 -0.629110 7.134338 -10.028350 -7.454371 -20.292661 27.856699 2.485045 0.064316 -5.942090 -11.152238 8.000161 -7.239857 0.464095 -1.507414 0.000000 0.000000 0.000000 -10.255579 -3.528200 5.403791 3.562738 -0.578103 -5.289063 8.556478 2.160625 -1.794156 1.087403 0.036071 1.516627 0.000000 0.000000 0.000000 8.199015 2.170474 -2.214922 -7.355833 -2.053773 -6.248331 -7.976910 -6.351271 2.788830 0.000000 0.000000 0.000000 8.890797 1.875852 -2.145692 3.626560 -14.259888 -10.914331 -0.955817 -0.293277 -3.042350 31.432729 -12.511736 -39.276330 -9.449145 -62.374462 -8.984690 0.000000 0.000000 0.000000 7.230320 2.241407 -1.306340 4.896837 7.402693 6.047510 -2.255422 5.759264 -0.004060 6.768912 4.752948 61.367610 22.877015 39.663264 -8.084551 0.000000 0.000000 0.000000 
-5.571480 102.717430 -1.907784 0.000000 0.000000 0.000000 -10.396993 -0.511094 6.402870 -0.844312 9.763346 -3.369715 11.369388 3.085860 1.060111 3.378471 1.648672 1.013640 -7.497063 0.428913 -0.707087 0.000000 0.000000 0.000000 -8.920503 0.065407 6.442778 -11.454582 -7.035779 -19.977542 28.624490 1.997116 -0.251276 -2.338416 -9.668453 9.396961 -7.474700 0.442924 -1.725042 0.000000 0.000000 0.000000 -10.716688 -2.619144 4.558380 4.327878 -0.093934 -4.949052 10.470392 1.997115 -1.145832 -0.059134 -0.154214 1.177231 0.000000 0.000000 0.000000 10.702439 2.078035 -1.676506 -11.328943 -0.521197 -7.132755 -11.512768 -4.398191 0.992734 0.000000 0.000000 0.000000 10.880450 2.097064 -1.560368 3.785956 -17.356224 -7.273848 -0.121504 0.083680 -5.201698 39.818579 -16.390663 -31.279623 -21.754018 -73.060444 -15.612581 0.000000 0.000000 0.000000 9.668904 2.167755 -0.931977 4.273815 8.430440 6.262133 -2.127757 5.118344 -0.586381 9.809619 10.480387 56.829056 26.388791 42.899185 -14.898362 0.000000 0.000000 0.000000 
-5.731036 103.669121 -2.043777 0.000000 0.000000 0.000000 -10.623361 -0.077753 5.690189 -1.670137 10.206098 -3.250889 11.959805 2.320331 0.572828 4.095688 2.884634 1.211672 -7.888229 0.597033 -0.696347 0.000000 0.000000 0.000000 -8.362632 0.752906 5.663391 -14.966106 -5.416681 -19.657197 32.644548 2.085435 -0.687855 1.555288 -7.918794 10.912626 -8.548489 0.397375 -1.949963 0.000000 0.000000 0.000000 -10.876480 -1.749009 3.835362 5.180943 0.217970 -4.590860 12.243100 1.693148 -0.586037 -0.963976 -0.632258 0.985723 0.000000 0.000000 0.000000 13.038368 1.840964 -1.161506 -14.767779 1.397804 -8.139811 -15.392487 -2.434780 -1.007398 0.000000 0.000000 0.000000 12.673413 2.158323 -1.048055 3.888943 -20.488100 -4.545733 0.303062 0.069034 -8.036302 47.917213 -17.479482 -23.325538 -44.569382 -82.685628 -32.624651 0.000000 0.000000 0.000000 11.865221 1.994964 -0.569385 3.573641 10.076207 7.254812 -2.012991 4.627498 -1.670712 12.605497 13.717540 51.614561 30.934214 47.337821 -23.619947 0.000000 0.000000 0.000000 
-5.794318 104.813126 -2.607872 0.000000 0.000000 0.000000 -10.417451 0.241243 4.932809 -2.847031 10.920719 -2.830042 12.350367 1.454180 -0.025592 5.735970 3.743747 1.235894 -8.334204 0.695003 -0.604882 0.000000 0.000000 0.000000 -7.721014 1.272290 4.755817 -20.035615 -2.867786 -19.050799 39.550842 2.451791 -1.230638 4.189797 -6.165731 11.438762 -8.493573 0.276907 -1.917734 0.000000 0.000000 0.000000 -10.361622 -0.900119 3.140991 5.993782 0.361995 -4.169425 13.742230 1.362018 -0.202819 -0.874233 -0.683432 0.983883 0.000000 0.000000 0.000000 14.875215 1.567664 -0.756672 -16.786312 3.300901 -9.135247 -19.172635 -0.484315 -2.945261 0.000000 0.000000 0.000000 14.100527 2.073535 -0.730675 3.719909 -23.110953 -3.626229 0.242139 -1.144740 -9.888372 53.721309 -17.456522 -16.473839 -154.562987 -86.952707 -137.640948 0.000000 0.000000 0.000000 13.601706 1.800050 -0.319364 2.805331 12.148948 9.021609 -1.302181 4.613781 -3.030228 14.212518 13.639117 46.373764 37.461074 53.623590 -34.905924 0.000000 0.000000 0.000000 
-5.896950 106.047928 -3.258209 0.000000 0.000000 0.000000 -9.812841 0.578530 4.095789 -4.609525 11.531380 -1.886371 12.677792 0.562163 -0.642164 8.119449 4.147549 1.181301 -8.305175 0.718658 -0.647101 0.000000 0.000000 0.000000 -7.109116 1.806020 3.805457 -25.898066 -0.047200 -17.851481 47.732268 2.541720 -1.778062 4.868198 -4.819781 10.278205 -6.502089 0.174704 -1.493614 0.000000 0.000000 0.000000 -8.905890 -0.085157 2.391728 6.657101 0.364234 -3.610705 14.869243 1.179984 -0.069804 -0.436561 0.061113 1.038064 0.000000 0.000000 0.000000 16.080036 1.441825 -0.556986 -16.707619 4.746003 -10.054341 -22.185872 1.229617 -4.495242 0.000000 0.000000 0.000000 15.181269 2.016668 -0.624649 3.034983 -24.805348 -5.007876 -0.653612 -2.804088 -10.078471 56.347729 -17.026521 -10.498539 153.761273 -81.719539 174.458071 0.000000 0.000000 0.000000 14.773639 1.747582 -0.246686 2.067527 14.390058 11.395699 -0.262975 4.477873 -4.293179 14.161151 10.727063 41.247010 48.884463 61.672223 -51.198651 0.000000 0.000000 0.000000 
